<svg width="257" height="64" viewBox="0 0 257 64" fill="none" xmlns="http://www.w3.org/2000/svg">
<path d="M104.775 13.0244C102.355 13.0244 100.391 10.9783 100.391 8.49391C100.391 5.97294 102.355 4 104.775 4C107.23 4 109.194 5.97294 109.194 8.49391C109.194 10.9783 107.23 13.0244 104.775 13.0244ZM104.775 57.9635C102.495 57.9635 100.987 56.3193 100.987 53.7984V22.341C100.987 19.7835 102.495 18.1394 104.775 18.1394C107.055 18.1394 108.563 19.7835 108.563 22.341V53.7984C108.563 56.3193 107.055 57.9635 104.775 57.9635Z" fill="#121212"/>
<path d="M118.665 57.9635C116.421 57.9635 114.877 56.3924 114.877 53.7984V22.1218C114.877 19.7104 116.28 18.1394 118.49 18.1394C120.665 18.1394 122.173 19.7104 122.173 22.1583V25.1908H122.348C124.347 20.8065 128.205 18.1759 133.887 18.1759C142.024 18.1759 146.689 23.5832 146.689 32.3884V53.7984C146.689 56.3924 145.111 57.9635 142.866 57.9635C140.657 57.9635 139.078 56.3924 139.078 53.7984V33.9229C139.078 28.1502 136.483 24.9716 131.222 24.9716C125.891 24.9716 122.453 28.9175 122.453 34.8728V53.7984C122.453 56.3924 120.875 57.9635 118.665 57.9635Z" fill="#121212"/>
<path d="M166.718 57.9635C164.017 57.9635 162.544 56.7943 161.492 53.9445L150.549 23.9486C150.303 23.2544 150.128 22.4871 150.128 21.7564C150.128 19.5643 151.741 18.1394 153.951 18.1394C155.705 18.1394 156.897 19.1258 157.528 21.2449L166.683 49.5602H166.823L175.977 21.1719C176.608 19.1258 177.801 18.1394 179.52 18.1394C181.694 18.1394 183.237 19.6373 183.237 21.7199C183.237 22.4141 183.097 23.1813 182.852 23.839L171.909 53.9445C170.927 56.7212 169.313 57.9635 166.718 57.9635Z" fill="#121212"/>
<path d="M201.723 58C191.165 58 184.221 50.4371 184.221 38.0514C184.221 25.7023 191.2 18.1394 201.723 18.1394C212.245 18.1394 219.224 25.7023 219.224 38.0514C219.224 50.4371 212.28 58 201.723 58ZM201.723 51.4966C207.685 51.4966 211.508 46.6008 211.508 38.0514C211.508 29.5386 207.65 24.6428 201.723 24.6428C195.795 24.6428 191.937 29.5386 191.937 38.0514C191.937 46.6008 195.795 51.4966 201.723 51.4966Z" fill="#121212"/>
<path d="M239.498 58C228.941 58 221.997 50.4371 221.997 38.0514C221.997 25.7023 228.976 18.1394 239.498 18.1394C250.02 18.1394 257 25.7023 257 38.0514C257 50.4371 250.055 58 239.498 58ZM239.498 51.4966C245.461 51.4966 249.284 46.6008 249.284 38.0514C249.284 29.5386 245.426 24.6428 239.498 24.6428C233.571 24.6428 229.713 29.5386 229.713 38.0514C229.713 46.6008 233.571 51.4966 239.498 51.4966Z" fill="#121212"/>
<path d="M64.0691 34.8439C68.3259 30.7905 68.3259 24.2186 64.0691 20.1652L46.0847 3.04006C41.8279 -1.01335 34.9263 -1.01335 30.6695 3.04006L3.1926 29.2042C-1.07265 33.2657 -1.06294 39.8535 3.21427 43.9035L21.2492 60.9805C25.5094 65.0145 32.3944 65.0053 36.6427 60.9599L64.0691 34.8439Z" fill="url(#paint0_linear_146_1893)"/>
<path d="M80.1793 34.8439C84.3725 30.7905 84.3725 24.2186 80.1793 20.1652L62.4633 3.04006C58.27 -1.01335 51.4714 -1.01335 47.2782 3.04006L20.2114 29.2042C16.0098 33.2657 16.0193 39.8535 20.2327 43.9035L37.9984 60.9805C42.1951 65.0145 48.9773 65.0053 53.1622 60.9599L80.1793 34.8439Z" fill="url(#paint1_linear_146_1893)" fill-opacity="0.8"/>
<defs>
<linearGradient id="paint0_linear_146_1893" x1="67.0121" y1="29.375" x2="14.7978" y2="50.0854" gradientUnits="userSpaceOnUse">
<stop stop-color="#3392FF"/>
<stop offset="1" stop-color="#7B4CFE"/>
</linearGradient>
<linearGradient id="paint1_linear_146_1893" x1="83.0784" y1="29.375" x2="31.4354" y2="49.553" gradientUnits="userSpaceOnUse">
<stop stop-color="#3392FF"/>
<stop offset="1" stop-color="#7B4CFE"/>
</linearGradient>
</defs>
</svg>
